<svg xmlns="http://www.w3.org/2000/svg" width="26" height="26" viewBox="0 0 26 26">
  <defs>
    <style>
      .cls-1 {
        fill: #c7796c;
        fill-rule: evenodd;
      }
    </style>
  </defs>
  <path id="zoom" class="cls-1" d="M17.381,17.646l0.476-.476a4.709,4.709,0,0,0,.719-0.931L24.3,21.963a1.166,1.166,0,0,1,0,1.649l-0.476.476a1.166,1.166,0,0,1-1.65,0L16.45,18.365A4.7,4.7,0,0,0,17.381,17.646ZM16.514,3.27a9.216,9.216,0,1,0,0,13.033A9.215,9.215,0,0,0,16.514,3.27ZM15.1,14.889a7.217,7.217,0,1,1,0-10.206A7.216,7.216,0,0,1,15.1,14.889ZM11.022,8.972V6.511a1,1,0,0,0-1-1H9.972a1,1,0,0,0-1,1l0,2.467H6.506a1,1,0,0,0-1,1v0.05a1,1,0,0,0,1,1l2.467,0v2.463a1,1,0,0,0,1,1h0.05a1,1,0,0,0,1-1l0.012-2.467h2.455a1,1,0,0,0,1-1V9.977a1,1,0,0,0-1-1Z"/>
</svg>
